<svg id="Capa_1" enable-background="new 0 0 511.98 511.98" height="512" viewBox="0 0 511.98 511.98" width="512" xmlns="http://www.w3.org/2000/svg"><g><path d="m505.762 304.893-32.451-32.45c-4.017-4.017-9.357-6.229-15.038-6.229s-11.021 2.212-15.038 6.229l-4.475 4.475-15.614-15.62 10.339-10.34c6.745-6.746 10.389-15.715 10.258-25.255-.131-9.538-4.022-18.407-10.959-24.974-5.125-4.852-11.442-7.812-18.05-8.9l5.366-5.366c13.514-13.514 14.001-35.607 1.087-49.25-5.24-5.537-11.947-9.134-19.291-10.427l5.629-5.628c6.745-6.746 10.389-15.716 10.258-25.256-.131-9.538-4.023-18.407-10.96-24.973-13.222-12.515-34.382-12.443-47.975-.126-1.285-7.364-4.887-14.091-10.436-19.344-13.642-12.913-35.735-12.426-49.25 1.088l-1.442 1.442c-5.762-12.539-18.411-21.147-33.061-21.147-14.672 0-27.312 8.601-33.067 21.141l-1.343-1.343c-14.184-14.184-37.265-14.185-51.45 0-8.313 8.312-11.754 19.678-10.324 30.519-10.843-1.429-22.207 2.012-30.519 10.324-8.313 8.312-11.754 19.678-10.324 30.519-10.842-1.431-22.207 2.013-30.519 10.324-8.767 8.767-12.115 20.931-10.046 32.293-10.32-.873-20.958 2.623-28.841 10.506-6.849 6.849-10.621 15.984-10.621 25.725s3.772 18.876 10.621 25.725l25.596 25.596c.004.147.006.293.01.44.25 8.244-2.859 16.223-8.528 21.892l-2.077 2.077-4.482-4.482c-8.292-8.291-21.784-8.292-30.077 0l-32.45 32.45c-8.292 8.292-8.292 21.785 0 30.077l136.29 136.29c4.146 4.146 9.592 6.219 15.038 6.219s10.893-2.073 15.039-6.219l32.45-32.45c8.292-8.292 8.292-21.784 0-30.077l-4.381-4.381 2.499-2.498c5.625-5.626 13.522-8.731 21.673-8.535 11.972.305 23.866-.894 35.42-3.465.054.01.105.025.159.034 8.85 1.403 17.877 1.997 26.824 1.772 8.117-.208 15.968 2.906 21.598 8.536l2.499 2.499-4.381 4.381c-4.018 4.017-6.23 9.358-6.23 15.039s2.213 11.021 6.229 15.039l32.45 32.45c4.017 4.017 9.357 6.229 15.038 6.229s11.021-2.212 15.039-6.229l136.29-136.29c8.292-8.291 8.292-21.783.001-30.076zm-241.103-257.05c10.486 0 19.497 7.928 21.113 18.095l-21.112 21.112-21.111-21.11c1.613-10.174 10.608-18.097 21.11-18.097zm-75.252 15.405c8.337-8.336 21.9-8.336 30.237 0l42.101 42.101c8.336 8.336 8.336 21.9 0 30.237s-21.9 8.335-30.236 0l-42.101-42.101c-8.337-8.336-8.337-21.9-.001-30.237zm-81.687 81.687c8.336-8.336 21.901-8.336 30.237 0l6.564 6.564c1.464 1.464 3.384 2.197 5.303 2.197s3.839-.732 5.303-2.197c2.929-2.929 2.929-7.678 0-10.606l-6.564-6.564c-4.016-4.016-6.227-9.385-6.227-15.118 0-5.734 2.211-11.103 6.227-15.119s9.385-6.227 15.118-6.227c5.734 0 11.103 2.211 15.119 6.227l68.396 68.396c8.336 8.336 8.336 21.9 0 30.237-8.337 8.336-21.9 8.336-30.237 0l-40.619-40.619c-2.929-2.929-7.678-2.929-10.606 0-2.929 2.929-2.929 7.678 0 10.606l23.925 23.925c8.336 8.336 8.336 21.9 0 30.237-4.016 4.016-9.385 6.227-15.118 6.227s-11.103-2.211-15.118-6.227l-19.318-19.318-32.385-32.385c-8.336-8.336-8.336-21.9 0-30.236zm-45.113 57.918c0-5.733 2.211-11.103 6.227-15.118 4.168-4.168 9.643-6.252 15.118-6.252 5.476 0 10.951 2.084 15.119 6.252l30.428 30.428c4.016 4.016 6.227 9.385 6.227 15.118s-2.211 11.103-6.227 15.118c-8.336 8.336-21.901 8.335-30.237 0l-30.428-30.428c-4.016-4.016-6.227-9.385-6.227-15.118zm131.823 227.008-32.45 32.45c-2.444 2.443-6.419 2.443-8.864 0l-136.29-136.29c-2.444-2.444-2.444-6.42 0-8.864l32.45-32.45c1.222-1.222 2.827-1.833 4.432-1.833s3.21.611 4.432 1.833l136.29 136.29c2.443 2.444 2.443 6.42 0 8.864zm30.769-49.88c-12.234-.303-24.136 4.406-32.653 12.923l-2.499 2.498-106.212-106.213 2.077-2.077c5.884-5.884 9.945-13.381 11.797-21.497 5.213 2.683 10.94 4.031 16.672 4.03 9.315-.001 18.633-3.547 25.725-10.639 5.516-5.516 9.036-12.515 10.197-20.119 6.657 5.957 15.188 9.215 24.239 9.215 9.74 0 18.876-3.772 25.725-10.621 5.776-5.776 9.2-13.026 10.272-20.552 14.228 10.466 34.403 9.265 47.266-3.598 14.184-14.185 14.184-37.265 0-51.45l-5.494-5.493c7.341-1.152 14.396-4.551 20.042-10.196 13.198-13.199 14.108-34.096 2.745-48.365l34.673-34.673c7.822-7.824 20.531-8.184 28.33-.801 3.971 3.759 6.199 8.832 6.273 14.286.075 5.457-2.008 10.586-5.866 14.444l-32.854 32.855c-2.929 2.929-2.929 7.678 0 10.606 1.465 1.464 3.385 2.197 5.304 2.197 1.92 0 3.839-.732 5.304-2.197l32.854-32.855 19.065-19.065c7.821-7.824 20.531-8.185 28.33-.801 3.971 3.759 6.199 8.832 6.273 14.285.075 5.457-2.008 10.586-5.866 14.444l-25.92 25.92c-.013.014-.026.026-.04.04l-26.365 26.365c-2.929 2.929-2.929 7.678 0 10.606 1.465 1.464 3.385 2.197 5.304 2.197s3.839-.732 5.304-2.197l26.365-26.365c3.79-3.791 8.809-5.868 14.159-5.868.095 0 .189 0 .283.002 5.454.075 10.528 2.303 14.287 6.273 7.382 7.798 7.022 20.508-.802 28.332l-25.96 25.96c-1.464 1.464-2.196 3.384-2.196 5.303s.732 3.839 2.196 5.303c2.93 2.929 7.678 2.929 10.607 0 7.822-7.824 20.533-8.182 28.331-.801 3.971 3.759 6.198 8.833 6.272 14.286.075 5.456-2.008 10.586-5.866 14.443l-100.961 100.963c-25.47 25.47-60.729 39.557-96.717 38.667zm269.955-55.617-136.289 136.29c-1.185 1.184-2.759 1.836-4.433 1.836s-3.247-.652-4.431-1.835l-32.45-32.45c-1.185-1.184-1.837-2.758-1.837-4.432s.652-3.248 1.837-4.432l79.826-79.827c2.929-2.929 2.929-7.678 0-10.606s-7.677-2.93-10.607 0l-64.838 64.838-2.499-2.499c-6.533-6.533-15.053-10.821-24.148-12.328 13.653-6.951 26.263-16.022 37.238-26.997l80.015-80.015 15.614 15.62-20.168 20.168c-2.929 2.929-2.929 7.678 0 10.606s7.677 2.93 10.607 0l35.251-35.25c1.184-1.184 2.757-1.835 4.431-1.835s3.248.652 4.432 1.835l32.45 32.449c2.443 2.444 2.443 6.42-.001 8.864z"/></g></svg>