<svg id="Layer_1" enable-background="new 0 0 50 50" height="512" viewBox="0 0 50 50" width="512" xmlns="http://www.w3.org/2000/svg"><g stroke="#682f2a" stroke-miterlimit="10"><path d="m46.4 46.2c-.8.8-2.2.8-3.1 0l-16-16 3.1-3.1 16 16c.9.9.9 2.2 0 3.1z" fill="#425060"/><ellipse cx="18.2" cy="18.1" fill="#525f70" rx="16.3" ry="16.3"/><ellipse cx="18.2" cy="18.1" fill="#8cf2ed" rx="12.3" ry="12.3"/><path d="m46.1 22.5h-34.2c-1.1 0-2-.9-2-2v-4.9c0-1.1.9-2 2-2h34.1c1.1 0 2 .9 2 2v4.9c.1 1.1-.8 2-1.9 2z" fill="#f4f4f4"/><path d="m46.1 22.5h-6.2c-1.1 0-2-.9-2-2v-4.9c0-1.1.9-2 2-2h6.2c1.1 0 2 .9 2 2v4.9c0 1.1-.9 2-2 2z" fill="#cccaca"/><g stroke-linecap="round" stroke-linejoin="round"><path d="m16.1 17-.8 2.2-.7-1.8-.8 1.8-.8-2.2" fill="none"/><path d="m21 17-.8 2.2-.8-1.8-.7 1.8-.8-2.2" fill="none"/><path d="m25.9 17-.9 2.2-.7-1.8-.7 1.8-.9-2.2" fill="none"/><circle cx="42.6" cy="17.7" fill="#fff" r="1.8"/><path d="m43.8 18.9 1.3 1.3" fill="none"/><path d="m45.8 7.5c-.1.7-.4 1.3-.8 1.8-.5-.4-1.1-.5-1.5-.1s-.3 1 .1 1.5c-.5.4-1.2.6-1.8.8 0-.6-.5-1.1-1-1.1s-1 .5-1 1.1c-.7-.1-1.3-.4-1.8-.8.4-.5.5-1.1.1-1.5s-1-.3-1.5.1c-.4-.6-.6-1.2-.8-1.8.7-.1 1.2-.5 1.2-1s-.5-.9-1.1-1c.1-.7.4-1.3.8-1.8.5.4 1.1.5 1.5.1s.3-1-.1-1.5c.5-.4 1.2-.6 1.8-.8 0 .6.5 1.1 1 1.1s.9-.5 1-1.1c.7.1 1.3.4 1.8.8-.4.5-.5 1.1-.1 1.5s1 .3 1.5-.1c.4.5.6 1.1.8 1.8-.6.1-1.1.5-1.1 1-.1.5.4.9 1 1z" fill="#559aff"/><circle cx="40.8" cy="6.5" fill="#fff" r="1.7"/><path d="m20.9 26.4h-15c-1 0-1.8.8-1.8 1.8v18.5c0 1 .8 1.8 1.8 1.8h15c1 0 1.8-.8 1.8-1.8v-18.5c0-1-.8-1.8-1.8-1.8z" fill="#f4f4f4"/><path d="m6.3 32.8h2.3v4.1h-2.3z" fill="#ff6989"/><path d="m10.3 31.3h2.3v5.7h-2.3z" fill="#ffb95c"/><path d="m14.3 33.6h2.3v3.3h-2.3z" fill="#6cd8d5"/><path d="m18.3 29.9h2.3v7.1h-2.3z" fill="#ff8c83"/><path d="m19.5 40.4-4.6 4.6-3-3.1-3.4 3.4-1.5-1.4" fill="#fff"/><circle cx="11.8" cy="42" fill="#6e9583" r="1.1"/><circle cx="15.1" cy="44.8" fill="#ff6989" r="1.1"/><circle cx="8.5" cy="45.1" fill="#abb734" r="1.1"/><path d="m19.4 42.7.3-2.5-2.6.3" fill="none"/><path d="m41.4 31.6v-5.2c-3 0-5.5 2.5-5.5 5.5 0 3.1 2.5 5.5 5.5 5.5 1.6 0 3-.7 4-1.8z" fill="#fecd04"/><path d="m41.4 26.4v5.2l4.3-3.1c-1-1.3-2.6-2.1-4.3-2.1z" fill="#c6cc4a"/><path d="m41.4 31.6 4 4c.9-1 1.5-2.3 1.5-3.7 0-1.3-.5-2.5-1.2-3.4z" fill="#ff6989"/><path d="m29.2 38.6 1.1 2.2 2.4.4-1.7 1.7.4 2.5-2.2-1.2-2.2 1.2.4-2.5-1.8-1.7 2.5-.4z" fill="#fecd04"/></g></g></svg>