<svg id="Layer_1" viewBox="0 0 512 512" xmlns="http://www.w3.org/2000/svg" data-name="Layer 1"><path d="m89.791 199.35c-24.235 0-43.951 19.716-43.951 43.95s19.716 43.951 43.951 43.951 43.951-19.717 43.951-43.951-19.716-43.95-43.951-43.95zm0 75.911c-17.623 0-31.961-14.338-31.961-31.961s14.338-31.96 31.961-31.96 31.96 14.337 31.96 31.96-14.337 31.961-31.96 31.961zm122.272 140.812c0 24.234 19.716 43.951 43.951 43.951s43.951-19.717 43.951-43.951-19.716-43.951-43.951-43.951-43.951 19.717-43.951 43.951zm75.912 0c0 17.623-14.337 31.961-31.96 31.961s-31.961-14.338-31.961-31.961 14.338-31.961 31.961-31.961 31.96 14.338 31.96 31.961zm208.531-194.953h-3.352c-1.323-4.236-3.023-8.338-5.086-12.266l2.415-2.415c4.476-4.534 4.476-11.912-.027-16.474l-14.91-14.909c-4.534-4.475-11.911-4.476-16.473.027l-2.388 2.388c-3.928-2.063-8.029-3.764-12.266-5.086v-3.353c0-6.432-5.232-11.664-11.664-11.664h-21.033c-6.432 0-11.665 5.232-11.665 11.664v3.353c-4.231 1.321-8.337 3.021-12.278 5.086l-2.403-2.415c-4.533-4.475-11.911-4.476-16.473.027l-14.882 14.882c-2.202 2.201-3.414 5.132-3.414 8.251s1.212 6.049 3.414 8.25l2.388 2.388c-2.062 3.928-3.764 8.029-5.086 12.266h-3.381c-6.416 0-11.636 5.232-11.636 11.665v4.082c-40.181-4.315-70.978-39.75-74.296-86.741v-108.615l11.994 24.119c1.048 2.107 3.169 3.327 5.373 3.327.897 0 1.808-.202 2.665-.629 2.965-1.475 4.173-5.073 2.699-8.038l-23.357-46.97c-1.013-2.037-3.093-3.325-5.368-3.325s-4.355 1.288-5.368 3.325l-23.357 46.97c-1.474 2.965-.266 6.563 2.699 8.038 2.964 1.475 6.563.266 8.038-2.698l11.994-24.119v108.615c-3.319 46.99-34.116 82.425-74.296 86.74v-4.082c0-6.433-5.232-11.665-11.665-11.665h-3.352c-1.323-4.236-3.023-8.338-5.086-12.266l2.415-2.415c4.476-4.534 4.476-11.912-.027-16.474l-14.91-14.909c-4.534-4.475-11.911-4.476-16.473.027l-2.388 2.388c-3.928-2.063-8.029-3.764-12.266-5.086v-3.353c0-6.432-5.232-11.664-11.664-11.664h-21.033c-6.432 0-11.665 5.232-11.665 11.664v3.35c-4.225 1.318-8.332 3.02-12.279 5.088l-2.402-2.414c-4.533-4.475-11.911-4.476-16.473.027l-14.882 14.882c-2.202 2.201-3.414 5.132-3.414 8.251s1.212 6.049 3.414 8.25l2.388 2.388c-2.063 3.928-3.763 8.029-5.086 12.266h-3.38c-6.432 0-11.665 5.232-11.665 11.665v21.032c0 6.433 5.232 11.665 11.665 11.665h3.378c1.318 4.226 3.019 8.331 5.087 12.278l-2.387 2.375c-2.202 2.201-3.414 5.132-3.414 8.25s1.212 6.05 3.414 8.251l14.882 14.882c2.202 2.202 5.132 3.414 8.25 3.414s6.048-1.212 8.261-3.425l2.364-2.376c3.947 2.068 8.054 3.77 12.279 5.088v3.378c0 6.432 5.232 11.664 11.665 11.664h21.033c6.432 0 11.664-5.232 11.664-11.664v-3.381c4.237-1.322 8.338-3.022 12.266-5.086l2.388 2.389c4.55 4.547 11.951 4.548 16.5 0l14.91-14.909c4.476-4.534 4.476-11.912-.038-16.484l-2.376-2.364c2.063-3.941 3.764-8.047 5.085-12.278h3.353c6.432 0 11.665-5.232 11.665-11.665v-4.88c32.299-2.975 59.418-23.173 74.296-53.065v134.268h-4.521c-6.432 0-11.665 5.232-11.665 11.665v3.352c-4.232 1.322-8.338 3.022-12.278 5.086l-2.403-2.415c-4.533-4.474-11.911-4.476-16.473.027l-14.882 14.882c-4.549 4.55-4.549 11.951 0 16.501l2.388 2.388c-2.062 3.928-3.763 8.029-5.086 12.266h-3.381c-6.432 0-11.664 5.232-11.664 11.665v21.033c0 6.432 5.232 11.664 11.664 11.664h3.381c1.321 4.232 3.022 8.338 5.085 12.278l-2.388 2.376c-4.548 4.55-4.547 11.952 0 16.5l14.882 14.882c4.549 4.55 11.951 4.551 16.511-.011l2.365-2.376c3.941 2.063 8.047 3.764 12.278 5.085v3.381c0 6.416 5.232 11.636 11.665 11.636h21.033c6.432 0 11.664-5.22 11.664-11.636v-3.381c4.237-1.322 8.338-3.022 12.266-5.086l2.388 2.389c4.55 4.547 11.951 4.548 16.5 0l14.91-14.909c4.475-4.533 4.476-11.91-.038-16.484l-2.376-2.364c2.063-3.94 3.764-8.046 5.085-12.278h3.353c6.432 0 11.665-5.232 11.665-11.664v-21.033c0-6.433-5.232-11.665-11.665-11.665h-3.352c-1.323-4.236-3.023-8.338-5.086-12.266l2.415-2.415c4.476-4.534 4.476-11.912-.027-16.474l-14.91-14.909c-4.534-4.475-11.911-4.475-16.474.027l-2.387 2.388c-3.927-2.062-8.029-3.763-12.266-5.086v-3.352c0-6.433-5.232-11.665-11.664-11.665h-4.521v-134.267c14.878 29.892 41.998 50.089 74.296 53.064v4.88c0 6.433 5.22 11.665 11.636 11.665h3.381c1.321 4.231 3.022 8.337 5.085 12.278l-2.387 2.375c-2.202 2.201-3.414 5.132-3.414 8.25s1.212 6.05 3.414 8.251l14.882 14.882c2.202 2.202 5.132 3.414 8.25 3.414s6.049-1.212 8.261-3.425l2.365-2.376c3.941 2.063 8.047 3.764 12.278 5.085v3.381c0 6.432 5.232 11.664 11.665 11.664h21.033c6.432 0 11.664-5.232 11.664-11.664v-3.381c4.237-1.322 8.338-3.022 12.266-5.086l2.388 2.389c4.55 4.547 11.951 4.548 16.5 0l14.91-14.909c4.476-4.534 4.476-11.912-.038-16.484l-2.376-2.364c2.068-3.947 3.77-8.053 5.087-12.278h3.35c6.432 0 11.665-5.232 11.665-11.665v-21.032c0-6.433-5.232-11.665-11.665-11.665zm-332.773 32.372h-7.583c-2.766 0-5.173 1.893-5.826 4.58-1.504 6.195-3.957 12.119-7.291 17.605-1.438 2.366-1.068 5.41.895 7.363l5.374 5.346-14.425 14.425-5.384-5.384c-1.958-1.957-5.001-2.319-7.363-.878-5.449 3.327-11.359 5.777-17.566 7.284-2.688.652-4.581 3.06-4.581 5.826v7.611h-20.381v-7.611c0-2.769-1.896-5.177-4.586-5.827-6.173-1.492-12.095-3.945-17.599-7.29-2.368-1.438-5.411-1.068-7.363.896l-5.346 5.373-14.424-14.425 5.373-5.346c1.963-1.953 2.333-4.996.895-7.363-3.344-5.504-5.796-11.425-7.29-17.6-.65-2.69-3.059-4.586-5.827-4.586h-7.611v-20.382h7.611c2.766 0 5.173-1.893 5.826-4.58 1.507-6.208 3.958-12.117 7.284-17.566 1.442-2.363 1.08-5.406-.878-7.363l-5.384-5.384 14.425-14.426 5.346 5.373c1.953 1.963 4.997 2.333 7.363.896 5.504-3.345 11.426-5.798 17.599-7.29 2.691-.65 4.586-3.059 4.586-5.827v-7.583h20.381v7.583c0 2.767 1.893 5.174 4.581 5.826 6.207 1.507 12.117 3.957 17.566 7.284 2.362 1.44 5.405 1.079 7.363-.878l5.384-5.384 14.426 14.425-5.385 5.385c-1.958 1.957-2.32 5.001-.877 7.363 3.326 5.448 5.777 11.358 7.284 17.566.653 2.688 3.06 4.58 5.826 4.58h7.583v20.382zm102.472 88.639v7.583c0 2.766 1.892 5.173 4.58 5.826 6.21 1.508 12.121 3.959 17.566 7.284 2.363 1.443 5.406 1.08 7.364-.877l5.383-5.385 14.426 14.425-5.385 5.385c-1.958 1.957-2.32 5.001-.877 7.363 3.326 5.448 5.777 11.358 7.284 17.566.653 2.688 3.06 4.58 5.826 4.58h7.583v20.382h-7.583c-2.766 0-5.173 1.893-5.826 4.58-1.504 6.197-3.958 12.12-7.291 17.605-1.438 2.366-1.068 5.41.895 7.363l5.374 5.346-14.425 14.425-5.384-5.384c-1.958-1.957-5-2.319-7.363-.878-5.449 3.327-11.359 5.777-17.566 7.284-2.688.652-4.581 3.06-4.581 5.826v7.583h-20.381v-7.583c0-2.767-1.893-5.174-4.581-5.826-6.194-1.503-12.117-3.956-17.604-7.291-2.368-1.438-5.41-1.068-7.363.896l-5.346 5.373-14.424-14.425 5.373-5.346c1.963-1.953 2.333-4.997.895-7.363-3.333-5.485-5.786-11.408-7.292-17.605-.653-2.688-3.06-4.58-5.826-4.58h-7.611v-20.382h7.611c2.766 0 5.173-1.893 5.826-4.58 1.508-6.208 3.959-12.118 7.285-17.566 1.442-2.363 1.08-5.406-.878-7.363l-5.384-5.385 14.425-14.425 5.346 5.374c1.954 1.963 4.998 2.331 7.364.895 5.484-3.333 11.407-5.786 17.605-7.291 2.688-.653 4.58-3.061 4.58-5.826v-7.583m250.356-88.639h-7.583c-2.769 0-5.177 1.896-5.827 4.586-1.493 6.175-3.946 12.096-7.29 17.6-1.438 2.366-1.068 5.41.895 7.363l5.374 5.346-14.425 14.425-5.384-5.384c-1.958-1.957-5.001-2.319-7.363-.878-5.449 3.327-11.359 5.777-17.566 7.284-2.688.652-4.581 3.06-4.581 5.826v7.611h-20.381v-7.611c0-2.767-1.893-5.174-4.581-5.826-6.194-1.503-12.117-3.956-17.604-7.291-2.368-1.438-5.41-1.068-7.363.896l-5.346 5.373-14.424-14.425 5.373-5.346c1.963-1.953 2.333-4.996.895-7.363-3.333-5.486-5.787-11.41-7.292-17.605-.653-2.688-3.06-4.58-5.826-4.58h-7.583v-20.382h7.583c2.766 0 5.173-1.893 5.826-4.58 1.508-6.208 3.959-12.118 7.285-17.566 1.442-2.363 1.08-5.406-.878-7.363l-5.384-5.384 14.425-14.426 5.346 5.373c1.953 1.963 4.996 2.333 7.363.896 5.488-3.335 11.411-5.788 17.604-7.291 2.688-.652 4.581-3.06 4.581-5.826v-7.583h20.381v7.583c0 2.767 1.893 5.174 4.581 5.826 6.207 1.507 12.117 3.957 17.566 7.284 2.362 1.44 5.405 1.079 7.363-.878l5.384-5.384 14.426 14.425-5.385 5.385c-1.958 1.957-2.32 5.001-.878 7.363 3.327 5.448 5.778 11.358 7.285 17.566.653 2.688 3.06 4.58 5.826 4.58h7.583v20.382zm-73.942-54.142c-24.235 0-43.951 19.716-43.951 43.95s19.716 43.951 43.951 43.951 43.951-19.717 43.951-43.951-19.716-43.95-43.951-43.95zm0 75.911c-17.623 0-31.961-14.338-31.961-31.961s14.338-31.96 31.961-31.96 31.96 14.337 31.96 31.96-14.337 31.961-31.96 31.961z"/></svg>