<svg enable-background="new 0 0 128 128" viewBox="0 0 128 128" xmlns="http://www.w3.org/2000/svg"><g id="Real_time_threads"/><g id="Individual_metrics"/><g id="Runtime_metrics"/><g id="Non-heap_memory"/><g id="Heap_memory"/><g id="Application_manager"/><g id="configurations"><g><path id="XMLID_64_" d="m99.422 70.666v-12.955h-6.943c-.756-3.558-2.102-6.895-3.92-9.888l4.912-5.104-8.808-9.152-4.912 5.177c-2.857-1.914-6.093-3.312-9.517-4.073v-7.287h-12.468v7.214c-3.424.785-6.636 2.184-9.517 4.073l-4.912-5.104-8.808 9.152 4.912 5.104c-1.842 2.969-3.188 6.33-3.92 9.888h-6.943v12.955h6.943c.756 3.558 2.102 6.895 3.92 9.888l-4.912 5.104 8.808 9.152 4.912-5.104c2.857 1.914 6.093 3.312 9.517 4.073v7.214h12.468v-7.214c3.424-.785 6.636-2.184 9.517-4.073l4.912 5.104 8.808-9.152-4.912-5.104c1.842-2.969 3.188-6.33 3.92-9.888z" fill="#fff"/><path d="m70.234 102.493h-12.468c-.828 0-1.5-.672-1.5-1.5v-6.035c-2.75-.729-5.36-1.844-7.788-3.326l-4.06 4.218c-.566.588-1.596.588-2.162 0l-8.808-9.151c-.559-.581-.559-1.499 0-2.08l4.125-4.287c-1.44-2.569-2.528-5.307-3.245-8.165h-5.75c-.828 0-1.5-.672-1.5-1.5v-12.956c0-.828.672-1.5 1.5-1.5h5.743c.707-2.887 1.795-5.626 3.245-8.172l-4.118-4.279c-.559-.581-.559-1.499 0-2.08l8.808-9.152c.566-.588 1.596-.588 2.162 0l4.066 4.225c2.449-1.471 5.058-2.585 7.781-3.324v-6.043c0-.828.672-1.5 1.5-1.5h12.469c.828 0 1.5.672 1.5 1.5v6.108c2.747.729 5.354 1.842 7.781 3.321l4.06-4.279c.281-.297.673-.466 1.083-.468h.005c.408 0 .798.166 1.081.46l8.808 9.152c.559.581.559 1.499 0 2.08l-4.126 4.287c.14.248.275.499.408.751.386.733.104 1.641-.628 2.026-.734.384-1.641.104-2.026-.628-.285-.543-.586-1.073-.902-1.595-.354-.581-.271-1.328.201-1.818l3.91-4.063-6.718-6.981-3.832 4.039c-.503.53-1.314.622-1.923.214-2.748-1.841-5.778-3.138-9.007-3.855-.687-.152-1.175-.761-1.175-1.464v-5.787h-9.469v5.714c0 .699-.483 1.306-1.165 1.462-3.198.733-6.236 2.034-9.029 3.865-.605.396-1.403.304-1.903-.215l-3.831-3.98-6.726 6.989 3.91 4.063c.476.494.555 1.248.193 1.831-1.777 2.865-3.031 6.028-3.726 9.399-.144.697-.757 1.197-1.469 1.197h-5.442v9.955h5.442c.708 0 1.32.495 1.467 1.188.709 3.337 1.966 6.507 3.735 9.422.354.582.271 1.328-.201 1.818l-3.91 4.063 6.726 6.988 3.831-3.98c.504-.522 1.311-.612 1.916-.206 2.748 1.841 5.778 3.138 9.007 3.855.687.152 1.175.761 1.175 1.464v5.714h9.469v-5.714c0-.699.483-1.306 1.165-1.462 3.199-.733 6.237-2.034 9.029-3.865.602-.398 1.403-.305 1.903.214l3.831 3.98 6.726-6.988-3.91-4.063c-.476-.494-.555-1.248-.193-1.831 1.777-2.865 3.031-6.028 3.726-9.4.144-.697.757-1.197 1.469-1.197h5.442v-9.955h-5.442c-.708 0-1.319-.495-1.467-1.188-.19-.895-.424-1.789-.692-2.657-.244-.792.199-1.632.99-1.876.793-.245 1.633.198 1.877.989.176.569.337 1.148.483 1.731h5.751c.828 0 1.5.672 1.5 1.5v12.955c0 .828-.672 1.5-1.5 1.5h-5.743c-.707 2.888-1.796 5.627-3.245 8.173l4.118 4.279c.559.581.559 1.499 0 2.08l-8.808 9.151c-.566.588-1.596.588-2.162 0l-4.066-4.225c-2.448 1.472-5.057 2.586-7.781 3.325v6.043c-.001.83-.672 1.502-1.501 1.502z" fill="#00126d"/><g><ellipse cx="64" cy="64.189" display="none" fill="#fff" rx="16.143" ry="16.133"/><path d="m69.884 49.177c6.002 2.352 10.259 8.179 10.259 15.012 0 8.91-7.227 16.133-16.143 16.133-.626 0-1.241-.044-1.849-.113 1.825.715 3.805 1.122 5.884 1.122 8.915 0 16.143-7.223 16.143-16.133.001-8.285-6.25-15.103-14.294-16.021z" fill="#96d2fa"/><path d="m80.143 64.189c0-6.833-4.257-12.659-10.259-15.012-.607-.069-1.222-.113-1.849-.113-8.915 0-16.143 7.223-16.143 16.133 0 6.833 4.257 12.659 10.259 15.012.607.069 1.222.113 1.849.113 8.915 0 16.143-7.223 16.143-16.133z" fill="#b7e1fd"/><path d="m64 81.822c-9.729 0-17.643-7.91-17.643-17.634 0-2.159.387-4.269 1.148-6.271.296-.774 1.167-1.159 1.936-.869.774.295 1.163 1.162.869 1.936-.633 1.661-.953 3.412-.953 5.205 0 8.069 6.568 14.634 14.643 14.634s14.643-6.564 14.643-14.634c0-8.068-6.568-14.633-14.643-14.633-4.199 0-8.203 1.807-10.984 4.956-.547.618-1.496.679-2.117.131s-.68-1.496-.131-2.117c3.351-3.794 8.173-5.97 13.232-5.97 9.729 0 17.643 7.91 17.643 17.633s-7.914 17.633-17.643 17.633z" fill="#00126d"/></g><g><path d="m64 121.654c-.828 0-1.5-.672-1.5-1.5v-19.161c0-.828.672-1.5 1.5-1.5s1.5.672 1.5 1.5v17.642c29.637-.79 53.5-24.891 53.5-54.403 0-21.199-12.584-40.62-32.059-49.478-.754-.343-1.087-1.232-.744-1.986.344-.754 1.233-1.086 1.986-.744 20.544 9.342 33.817 29.834 33.817 52.207 0 31.664-26.019 57.423-58 57.423z" fill="#00126d"/><path d="m39.444 116.111c-.217 0-.438-.047-.646-.146-19.924-9.532-32.798-29.839-32.798-51.734 0-31.663 26.019-57.422 58-57.422.828 0 1.5.672 1.5 1.5v18.398c0 .828-.672 1.5-1.5 1.5s-1.5-.672-1.5-1.5v-16.879c-29.637.79-53.5 24.891-53.5 54.403 0 20.746 12.205 39.99 31.093 49.026.747.358 1.063 1.254.706 2.001-.258.539-.795.853-1.355.853z" fill="#00126d"/><g><ellipse cx="40.298" cy="114.611" fill="#e8b200" rx="9.991" ry="9.889"/><path d="m40.299 126c-6.336 0-11.491-5.109-11.491-11.389s5.155-11.39 11.491-11.39 11.491 5.109 11.491 11.39c0 6.28-5.155 11.389-11.491 11.389zm0-19.778c-4.682 0-8.491 3.764-8.491 8.39s3.809 8.388 8.491 8.388 8.491-3.763 8.491-8.389-3.81-8.389-8.491-8.389z" fill="#00126d"/></g><g><ellipse cx="87.167" cy="13.389" fill="#ffcb00" rx="9.991" ry="9.889"/><path d="m87.167 24.778c-6.336 0-11.491-5.109-11.491-11.39 0-6.279 5.155-11.388 11.491-11.388s11.491 5.109 11.491 11.389-5.155 11.389-11.491 11.389zm0-19.778c-4.682 0-8.491 3.763-8.491 8.389s3.81 8.39 8.491 8.39 8.491-3.764 8.491-8.39-3.809-8.389-8.491-8.389z" fill="#00126d"/></g></g></g></g><g id="Nodes"/><g id="Cluster"/><g id="Scheduled_maintainence"/><g id="Unknown"/><g id="Critical"/><g id="Warning"/><g id="Clear"/><g id="Performance_history"/><g id="Data"/><g id="Performance"/><g id="Real-time"/><g id="Monitoring"/><g id="Elasticsearch"/></svg>