<svg viewBox="0 0 512 512" xmlns="http://www.w3.org/2000/svg" role="img" aria-label="Bowerman Digital B icon, solid with echo outlines">
  <rect width="512" height="512" rx="112" fill="#07070f"/>
  <g fill="none" stroke-width="6" stroke-linejoin="round">
    <g stroke="#6366f1" opacity="0.55" transform="translate(28,28)">
      <rect x="172" y="92" width="44" height="344" rx="22"/>
      <path d="M236 92a84 84 0 0 1 0 168z"/>
      <path d="M236 260a88 88 0 0 1 0 176z"/>
    </g>
    <g stroke="#e879f9" opacity="0.8" transform="translate(14,14)">
      <rect x="172" y="92" width="44" height="344" rx="22"/>
      <path d="M236 92a84 84 0 0 1 0 168z"/>
      <path d="M236 260a88 88 0 0 1 0 176z"/>
    </g>
  </g>
  <g fill="#22d3ee">
    <rect x="172" y="92" width="44" height="344" rx="22"/>
    <path d="M236 92a84 84 0 0 1 0 168z"/>
    <path d="M236 260a88 88 0 0 1 0 176z"/>
  </g>
</svg>
