<svg viewBox="0 0 512 512" xmlns="http://www.w3.org/2000/svg" role="img" aria-label="Bowerman Digital B icon, chromatic echo style">
  <rect width="512" height="512" rx="112" fill="#07070f"/>
  <g fill="none" stroke-width="7" stroke-linejoin="round">
    <g stroke="#312e81" transform="translate(27,27)">
      <rect x="180" y="96" width="44" height="344" rx="22"/>
      <path d="M244 96a84 84 0 0 1 0 168z"/>
      <path d="M244 264a88 88 0 0 1 0 176z"/>
    </g>
    <g stroke="#6d28d9" transform="translate(18,18)">
      <rect x="180" y="96" width="44" height="344" rx="22"/>
      <path d="M244 96a84 84 0 0 1 0 168z"/>
      <path d="M244 264a88 88 0 0 1 0 176z"/>
    </g>
    <g stroke="#c026d3" transform="translate(9,9)">
      <rect x="180" y="96" width="44" height="344" rx="22"/>
      <path d="M244 96a84 84 0 0 1 0 168z"/>
      <path d="M244 264a88 88 0 0 1 0 176z"/>
    </g>
    <g stroke="#22d3ee">
      <rect x="180" y="96" width="44" height="344" rx="22"/>
      <path d="M244 96a84 84 0 0 1 0 168z"/>
      <path d="M244 264a88 88 0 0 1 0 176z"/>
    </g>
  </g>
</svg>
