<svg viewBox="0 0 512 512" xmlns="http://www.w3.org/2000/svg" role="img" aria-label="Bowerman Digital B icon, neon tube style">
  <rect width="512" height="512" rx="112" fill="#07070f"/>
  <g fill="none" stroke-linecap="round" stroke-linejoin="round">
    <path d="M186 96v344m0-336h44a80 80 0 0 1 0 160h-44m0 0h52a88 88 0 0 1 0 176h-52" stroke="#22d3ee" stroke-width="22" opacity="0.12"/>
    <path d="M186 96v344m0-336h44a80 80 0 0 1 0 160h-44m0 0h52a88 88 0 0 1 0 176h-52" stroke="#22d3ee" stroke-width="11" opacity="0.28"/>
    <path d="M186 96v344m0-336h44a80 80 0 0 1 0 160h-44m0 0h52a88 88 0 0 1 0 176h-52" stroke="#7dd3fc" stroke-width="4.5"/>
    <path d="M186 96v344m0-336h44a80 80 0 0 1 0 160h-44m0 0h52a88 88 0 0 1 0 176h-52" stroke="#e0fcff" stroke-width="1.8"/>
  </g>
  <g fill="#e879f9">
    <path d="M372 116l4.5 13.5L390 134l-13.5 4.5L372 152l-4.5-13.5L354 134l13.5-4.5z"/>
    <circle cx="402" cy="166" r="3" opacity="0.7"/>
  </g>
</svg>
