<svg viewBox="0 0 512 330" xmlns="http://www.w3.org/2000/svg" role="img" aria-label="Bowerman Digital stacked logo">
<g transform="translate(205.4,28.0) scale(0.46)" fill="none" stroke="#22d3ee" stroke-width="8" stroke-linejoin="round"><g opacity="0.2" transform="translate(36,36)"><rect x="0" y="0" width="44" height="344" rx="22"/><path d="M64 0a110 84 0 0 1 0 168z"/><path d="M64 168a120 88 0 0 1 0 176z"/></g><g opacity="0.45" transform="translate(18,18)"><rect x="0" y="0" width="44" height="344" rx="22"/><path d="M64 0a110 84 0 0 1 0 168z"/><path d="M64 168a120 88 0 0 1 0 176z"/></g><g opacity="1" transform="translate(0,0)"><rect x="0" y="0" width="44" height="344" rx="22"/><path d="M64 0a110 84 0 0 1 0 168z"/><path d="M64 168a120 88 0 0 1 0 176z"/></g></g>
<g transform="translate(21.6,296.0) scale(0.055,-0.055)" fill="#ffffff"><path transform="translate(0,0)" d="M46 0V106H140V594H46V700H404Q467 700 515 678Q562 657 589 617Q615 578 615 523V514Q615 466 597 435Q579 404 554 387Q529 370 506 363V346Q529 340 555 324Q582 307 600 275Q619 244 619 194V184Q619 127 591 85Q564 44 517 22Q469 0 407 0ZM260 109H393Q441 109 470 133Q498 156 498 199V208Q498 251 470 274Q442 298 393 298H260ZM260 407H392Q438 407 466 430Q495 453 495 494V504Q495 545 467 568Q438 591 392 591H260Z"/><path transform="translate(663,0)" d="M307 -14Q233 -14 174 16Q116 47 83 103Q49 160 49 239V255Q49 334 83 391Q116 448 174 478Q233 508 307 508Q381 508 439 478Q497 448 531 391Q564 334 564 255V239Q564 160 531 103Q497 47 439 16Q381 -14 307 -14ZM307 88Q370 88 410 128Q450 169 450 242V252Q450 325 410 366Q370 406 307 406Q244 406 204 366Q164 325 164 252V242Q164 169 204 128Q244 88 307 88Z"/><path transform="translate(1276,0)" d="M120 0 43 494H157L210 77H227L302 494H486L561 77H578L631 494H745L668 0H477L403 417H386L311 0Z"/><path transform="translate(2064,0)" d="M299 -14Q225 -14 168 18Q112 49 81 106Q49 164 49 241V253Q49 331 80 388Q111 445 167 477Q223 508 296 508Q368 508 422 476Q476 445 506 388Q536 331 536 255V214H165Q167 156 206 121Q245 86 302 86Q358 86 385 111Q412 135 426 166L521 117Q507 90 480 59Q454 29 410 7Q366 -14 299 -14ZM166 301H419Q415 350 382 379Q348 408 295 408Q240 408 207 379Q174 350 166 301Z"/><path transform="translate(2645,0)" d="M73 0V494H186V437H203Q214 468 240 482Q266 496 302 496H362V394H300Q250 394 219 368Q188 341 188 286V0Z"/><path transform="translate(3036,0)" d="M73 0V494H186V439H203Q216 464 246 483Q277 503 328 503Q382 503 415 481Q448 459 465 425H481Q498 459 530 481Q562 503 621 503Q667 503 705 483Q742 463 764 424Q787 385 787 327V0H672V319Q672 362 649 384Q626 407 585 407Q540 407 513 377Q487 348 487 293V0H373V319Q373 362 350 384Q327 407 286 407Q240 407 214 377Q188 348 188 293V0Z"/><path transform="translate(3891,0)" d="M226 -14Q174 -14 132 4Q90 23 65 58Q41 93 41 144Q41 194 65 228Q90 262 133 280Q176 297 231 297H374V327Q374 366 350 390Q326 415 275 415Q225 415 200 391Q174 368 166 331L60 366Q72 405 99 437Q125 469 169 489Q213 508 277 508Q374 508 430 459Q485 411 485 319V125Q485 95 513 95H555V0H474Q438 0 415 18Q392 36 392 67V69H375Q369 55 354 35Q339 15 308 1Q278 -14 226 -14ZM245 80Q302 80 338 112Q374 145 374 200V210H238Q201 210 178 194Q155 178 155 147Q155 117 179 98Q203 80 245 80Z"/><path transform="translate(4468,0)" d="M73 0V494H186V425H203Q216 453 250 478Q284 503 353 503Q410 503 454 477Q498 451 522 405Q547 359 547 296V0H432V287Q432 347 402 376Q373 406 319 406Q258 406 223 365Q188 325 188 250V0Z"/></g>
<g transform="translate(318.8,296.0) scale(0.055,-0.055)" fill="#22d3ee"><path transform="translate(0,0)" d="M46 0V106H140V594H46V700H331Q471 700 545 629Q619 558 619 416V284Q619 142 545 71Q471 0 331 0ZM260 109H332Q417 109 458 153Q499 197 499 280V419Q499 504 458 547Q417 591 332 591H260Z"/><path transform="translate(665,0)" d="M73 0V494H188V0ZM130 557Q98 557 76 578Q54 598 54 632Q54 666 76 686Q98 707 130 707Q163 707 185 686Q206 666 206 632Q206 598 185 578Q163 557 130 557Z"/><path transform="translate(926,0)" d="M49 245V260Q49 338 80 394Q111 449 163 479Q215 508 277 508Q347 508 383 483Q420 458 437 429H454V494H566V-94Q566 -143 538 -171Q510 -200 462 -200H130V-100H423Q452 -100 452 -70V73H435Q424 56 405 38Q386 21 355 9Q324 -3 277 -3Q215 -3 163 27Q111 56 80 112Q49 167 49 245ZM309 98Q371 98 412 137Q453 177 453 248V258Q453 330 413 369Q372 408 309 408Q247 408 205 369Q164 330 164 258V248Q164 177 205 137Q247 98 309 98Z"/><path transform="translate(1565,0)" d="M73 0V494H188V0ZM130 557Q98 557 76 578Q54 598 54 632Q54 666 76 686Q98 707 130 707Q163 707 185 686Q206 666 206 632Q206 598 185 578Q163 557 130 557Z"/><path transform="translate(1826,0)" d="M261 0Q213 0 185 29Q156 57 156 106V399H27V494H156V653H271V494H413V399H271V125Q271 95 299 95H398V0Z"/><path transform="translate(2283,0)" d="M226 -14Q174 -14 132 4Q90 23 65 58Q41 93 41 144Q41 194 65 228Q90 262 133 280Q176 297 231 297H374V327Q374 366 350 390Q326 415 275 415Q225 415 200 391Q174 368 166 331L60 366Q72 405 99 437Q125 469 169 489Q213 508 277 508Q374 508 430 459Q485 411 485 319V125Q485 95 513 95H555V0H474Q438 0 415 18Q392 36 392 67V69H375Q369 55 354 35Q339 15 308 1Q278 -14 226 -14ZM245 80Q302 80 338 112Q374 145 374 200V210H238Q201 210 178 194Q155 178 155 147Q155 117 179 98Q203 80 245 80Z"/><path transform="translate(2860,0)" d="M73 0V700H188V0Z"/></g>
</svg>